<?xml version="1.0" standalone="no"?>
<!DOCTYPE svg PUBLIC "-//W3C//DTD SVG 20010904//EN"
 "http://www.w3.org/TR/2001/REC-SVG-20010904/DTD/svg10.dtd">
<svg version="1.0" xmlns="http://www.w3.org/2000/svg"
 width="900.000000pt" height="900.000000pt" viewBox="0 0 900.000000 900.000000"
 preserveAspectRatio="xMidYMid meet">
<metadata>
Created by potrace 1.10, written by Peter Selinger 2001-2011
</metadata>
<g transform="translate(0.000000,900.000000) scale(0.100000,-0.100000)"
fill="#005634" stroke="none">
<path d="M5639 7514 c-20 -24 -14 -78 21 -183 90 -278 -28 -536 -329 -716
l-64 -38 6 -61 c7 -69 51 -182 92 -233 14 -19 44 -45 66 -60 53 -35 157 -37
238 -4 120 49 258 188 326 328 71 144 86 206 86 355 1 112 -2 131 -31 218 -17
52 -47 121 -67 153 -102 168 -293 302 -344 241z"/>
<path d="M2957 7468 c-117 -63 -238 -224 -282 -373 -9 -33 -21 -73 -26 -89
-24 -76 -3 -247 43 -366 62 -158 141 -273 256 -373 67 -59 183 -124 201 -113
5 3 23 34 41 68 60 118 139 243 190 303 28 33 49 67 48 75 -2 8 -23 26 -48 39
-70 37 -177 129 -224 190 -83 107 -124 208 -133 327 -5 69 -2 96 21 183 25 95
26 104 11 127 -19 29 -47 30 -98 2z"/>
<path d="M4403 6710 c-83 -9 -164 -26 -208 -45 -16 -7 -55 -23 -85 -35 -30
-12 -77 -39 -105 -59 -79 -58 -105 -73 -105 -60 0 13 62 110 86 134 9 8 13 23
10 32 -5 13 -18 15 -79 10 -40 -3 -88 -12 -107 -20 -19 -9 -59 -25 -89 -37
-152 -61 -283 -212 -413 -475 -56 -114 -107 -206 -124 -226 -8 -8 -14 -20 -14
-25 0 -5 -45 -61 -101 -124 -64 -73 -111 -138 -130 -179 -27 -57 -30 -71 -26
-135 5 -78 19 -158 35 -196 36 -85 53 -175 55 -277 2 -96 4 -108 20 -108 9 0
25 12 35 26 45 69 126 168 134 163 11 -7 10 -38 -1 -50 -5 -5 -14 -25 -19 -44
-6 -19 -16 -51 -23 -70 -12 -35 -17 -46 -63 -154 -15 -32 -26 -62 -26 -67 0
-11 -129 -276 -173 -354 -80 -142 -161 -255 -211 -290 -48 -35 -105 -65 -123
-65 -29 0 -96 -46 -137 -94 -64 -75 -79 -135 -72 -277 3 -63 7 -188 9 -279 2
-149 5 -170 26 -215 54 -115 107 -150 213 -142 69 6 164 27 188 41 7 5 62 12
121 14 86 4 128 0 206 -17 54 -12 105 -26 113 -30 9 -5 40 -12 70 -16 30 -3
80 -13 111 -21 93 -23 244 -18 336 11 176 55 260 138 337 328 20 49 42 48 51
-1 7 -43 -8 -183 -24 -226 -14 -35 -14 -56 -1 -56 6 0 41 23 78 52 70 54 187
118 219 118 10 1 36 7 58 15 22 8 59 17 83 21 60 9 55 -9 -25 -82 -42 -38 -64
-65 -59 -72 12 -19 103 -14 232 13 122 25 197 46 230 63 11 6 57 29 104 52 93
45 191 109 198 128 2 8 -11 12 -41 12 -36 0 -51 6 -76 29 l-31 29 0 157 c0 89
-4 165 -10 176 -10 18 -23 19 -180 19 -222 0 -210 -10 -210 183 1 201 -10 191
207 194 92 2 173 5 180 7 8 4 13 56 15 181 l3 177 28 24 c26 22 36 24 148 24
182 0 189 -9 195 -249 2 -85 6 -156 9 -159 6 -6 216 -4 223 2 9 10 21 93 28
200 8 115 -10 463 -27 531 -12 50 -17 240 -6 277 14 50 46 48 287 -16 125 -33
146 -36 276 -36 125 0 155 4 257 30 190 49 351 144 500 294 172 175 265 320
333 523 46 137 36 185 -51 244 -78 53 -217 112 -340 143 -33 8 -82 21 -110 28
-32 8 -111 13 -220 13 -143 0 -184 -4 -260 -23 -250 -63 -474 -197 -692 -411
-89 -88 -124 -111 -108 -73 4 9 11 33 16 52 4 19 15 53 24 74 9 21 13 42 8 46
-4 3 -44 15 -88 25 -44 10 -104 33 -135 51 -85 51 -177 170 -195 255 -4 17
-13 42 -21 57 -8 15 -14 38 -14 52 0 60 -70 119 -205 176 -162 68 -369 101
-532 84z m2452 -654 c114 -25 235 -67 235 -81 0 -3 -34 -21 -76 -40 -131 -61
-204 -126 -299 -270 -80 -120 -194 -224 -314 -286 -124 -66 -326 -83 -438 -39
-32 13 -75 37 -97 53 -37 30 -38 31 -31 81 23 173 216 397 449 520 27 14 54
26 60 26 6 0 23 6 38 14 14 8 50 17 80 21 29 4 60 11 68 16 22 13 244 3 325
-15z m-2009 -387 c61 -11 144 -45 144 -59 0 -4 -44 -10 -97 -13 -111 -6 -167
-24 -231 -75 -44 -35 -82 -96 -82 -132 0 -29 16 -25 69 20 59 50 138 67 238
51 67 -10 156 -60 181 -102 20 -31 2 -45 -39 -30 -43 15 -88 14 -95 -2 -2 -7
2 -32 11 -56 21 -59 19 -103 -6 -156 -24 -50 -52 -73 -119 -98 -57 -21 -70
-21 -133 1 -35 11 -68 34 -104 70 l-52 54 -23 -25 c-13 -13 -48 -53 -78 -88
-46 -54 -93 -104 -232 -251 -20 -20 -38 -24 -38 -8 0 6 10 27 23 48 13 20 33
57 44 82 12 25 33 70 47 100 29 63 96 263 96 287 0 27 50 175 78 228 64 125
221 186 398 154z m-1199 -1739 c72 -37 146 -119 172 -188 26 -68 24 -117 -6
-202 -29 -81 -32 -78 -72 56 -12 39 -35 92 -52 119 -45 72 -136 157 -201 188
-57 27 -65 36 -50 51 15 16 166 -1 209 -24z m-170 -237 c25 -33 28 -44 28
-117 0 -75 -3 -85 -34 -134 -18 -29 -61 -77 -94 -107 -57 -52 -63 -55 -113
-55 -45 0 -59 5 -87 30 -45 39 -80 119 -71 164 8 45 30 64 139 121 106 55 114
60 144 103 29 42 53 41 88 -5z m-913 -59 c84 -79 116 -131 116 -189 0 -48 -25
-87 -72 -111 -29 -15 -32 -15 -57 3 -49 36 -112 285 -88 347 11 27 27 19 101
-50z"/>
<path d="M2202 6309 c-13 -5 -47 -13 -75 -18 -146 -27 -323 -107 -383 -173
-39 -43 -38 -36 -15 -149 19 -89 127 -283 219 -392 127 -151 276 -248 482
-312 63 -20 324 -25 342 -7 10 10 12 180 2 206 -3 7 -31 21 -62 30 -164 52
-255 129 -311 266 -31 73 -64 116 -119 151 -53 33 -158 69 -204 69 -39 0 -67
15 -53 28 6 5 37 16 70 25 200 56 390 56 512 1 17 -8 36 -14 42 -14 17 0 108
-58 194 -122 85 -64 102 -67 130 -19 31 53 21 85 -53 165 -153 166 -398 277
-607 275 -48 0 -99 -4 -111 -10z"/>
<path d="M5926 4742 c-6 -10 7 -146 21 -227 4 -22 8 -166 8 -320 0 -228 -4
-299 -18 -380 -28 -151 -78 -291 -154 -434 -84 -157 -201 -316 -403 -551 -240
-279 -313 -367 -417 -508 -219 -295 -351 -571 -385 -807 -20 -134 -7 -420 18
-420 6 0 68 54 138 120 70 66 135 124 144 129 9 5 51 39 92 76 41 37 143 117
225 178 83 62 156 116 162 122 7 6 34 25 60 43 53 35 186 141 242 192 20 18
66 59 103 92 69 60 162 159 254 268 53 64 168 231 184 268 6 12 14 29 19 37
63 108 141 327 161 450 5 36 14 85 19 110 12 55 12 275 1 350 -43 270 -78 416
-141 581 -16 42 -29 79 -29 82 0 21 -133 294 -223 458 -39 70 -71 106 -81 91z"/>
<path d="M5483 3720 c-20 -8 -23 -17 -23 -65 0 -30 4 -55 10 -55 5 0 24 19 40
42 46 63 32 102 -27 78z"/>
<path d="M2819 2866 c-53 -13 -79 -31 -79 -56 0 -27 66 -81 155 -126 141 -73
169 -79 360 -79 164 0 173 1 245 29 132 52 246 123 228 142 -4 4 -74 6 -156 5
-100 -1 -169 3 -213 12 -35 8 -98 22 -139 31 -41 9 -113 25 -160 36 -93 22
-170 24 -241 6z"/>
<path d="M3766 2501 c-4 -5 9 -34 27 -63 46 -72 112 -190 184 -328 93 -177
124 -234 137 -250 7 -8 15 -22 18 -30 5 -14 105 -164 174 -260 38 -54 64 -73
80 -59 21 17 19 282 -2 346 -56 171 -117 282 -221 404 -108 126 -370 285 -397
240z"/>
</g>
</svg>
