<svg xmlns="http://www.w3.org/2000/svg" viewBox="0 0 32 32" fill="none">
  <!-- Background with rounded corners -->
  <rect width="32" height="32" rx="8" fill="#16a34a"/>
  
  <!-- Cattle head silhouette -->
  <path d="M6 10c0-2.21 1.79-4 4-4h12c2.21 0 4 1.79 4 4v8c0 2.21-1.79 4-4 4H10c-2.21 0-4-1.79-4-4V10z" fill="white"/>
  
  <!-- Ears -->
  <path d="M8 6l2-2h2l-2 2H8z" fill="white"/>
  <path d="M24 6l-2-2h-2l2 2h2z" fill="white"/>
  
  <!-- Eyes -->
  <circle cx="12" cy="16" r="1.5" fill="#16a34a"/>
  <circle cx="20" cy="16" r="1.5" fill="#16a34a"/>
  
  <!-- Nose -->
  <ellipse cx="16" cy="20" rx="2" ry="1" fill="#16a34a"/>
  
  <!-- Horns -->
  <path d="M9 4l1-2h2l-1 2H9z" fill="white"/>
  <path d="M23 4l-1-2h-2l1 2h2z" fill="white"/>
  
  <!-- IoT sensor indicator (top right) -->
  <circle cx="26" cy="6" r="2" fill="#fbbf24"/>
  <circle cx="26" cy="6" r="1" fill="#16a34a"/>
  
  <!-- Data flow lines (representing IoT connectivity) -->
  <path d="M26 8l2 2" stroke="#fbbf24" stroke-width="1" stroke-linecap="round"/>
  <path d="M28 10l2 2" stroke="#fbbf24" stroke-width="1" stroke-linecap="round"/>
</svg> 